<svg xmlns="http://www.w3.org/2000/svg" viewBox="0 0 427 427"><defs><style>.cls-1{opacity:0.95;isolation:isolate;}</style></defs><title>Asset 1</title><g id="Layer_2" data-name="Layer 2"><g id="Layer_1-2" data-name="Layer 1"><g id="Layer_2-2" data-name="Layer 2"><g id="Layer_1-2-2" data-name="Layer 1-2"><path class="cls-1" d="M213.52,0C95.6,0,0,95.6,0,213.52S95.6,427,213.52,427,427,331.44,427,213.52,331.44,0,213.52,0Zm-104,205.6a4.52,4.52,0,0,1-4.91-3L72.55,121c-3.26-8.29.27-17.88,7.89-21.43s16.42.3,19.68,8.58a18.31,18.31,0,0,1,1,4l12.23,87.78a4.94,4.94,0,0,1-3.79,5.67Zm93.9-87.84a19.18,19.18,0,0,1-.85,3.25c-5.77,15.67-10.8,31.58-15.61,47.56s-9.25,32.06-13.48,48.21-8.2,32.39-11.88,48.71-7.07,32.73-9.76,49.37c-1.46,8.84-9.24,14.72-17.37,13.12S121,318,122.39,309.23a19.07,19.07,0,0,1,.85-3.24c5.77-15.68,10.8-31.58,15.61-47.56s9.25-32.06,13.48-48.19,8.2-32.41,11.88-48.73,7.08-32.72,9.76-49.37c1.42-8.86,9.17-14.78,17.31-13.22s13.61,10,12.18,18.84Zm164.3,107.79c-9.61,6.76-18.69,14.14-27.6,21.75S322.54,262.81,314,270.93s-16.83,16.45-24.93,25-16,17.43-23.46,26.89a14.2,14.2,0,0,1-19.87,2.93,13.85,13.85,0,0,1-1.32-1.11,17.38,17.38,0,0,1-1.67-23.06,16.12,16.12,0,0,1,3.27-3.12c9.59-6.76,18.67-14.16,27.57-21.76s17.58-15.52,26.09-23.62,16.84-16.44,25-25c4.52-4.78,9-9.65,13.32-14.65-4.37-5-8.85-9.84-13.38-14.61q-12.17-12.82-25-24.91c-8.53-8.07-17.16-15.91-26.05-23.53s-18-15-27.51-21.73c-7-4.8-9.16-14.89-4.75-22.54s13.68-10,20.7-5.17l.41.28a16.15,16.15,0,0,1,3.18,3c7.46,9.39,15.42,18.15,23.54,26.72s16.47,16.85,25,24.91,17.18,16,26.06,23.56,17.95,15,27.52,21.74h.05c6.17,4.35,7.92,13.33,3.93,20a14.2,14.2,0,0,1-4,4.4Z"/></g></g></g></g></svg>