<svg id="Layer_1" data-name="Layer 1" xmlns="http://www.w3.org/2000/svg" viewBox="0 0 779.09 544.86"><title>logo vida</title><path d="M257.84,719.16c14.87-37.08,27.82-74.7,40.19-112.49s23.83-75.84,34.72-114S353.88,416,363.36,377.4,381.58,300,388.48,260.61a38.5,38.5,0,0,1,75.85,13.3,41.25,41.25,0,0,1-2.19,7.69c-14.87,37.07-27.82,74.7-40.19,112.49s-23.84,75.84-34.72,114.05-21.12,76.61-30.6,115.22S338.41,700.8,331.5,740.14a38.5,38.5,0,0,1-75.84-13.31A41,41,0,0,1,257.84,719.16Z" transform="translate(-124.07 -227.79)"/><path d="M200.85,260.61l31.5,207.65a11.78,11.78,0,0,1-22.48,6.41L127.2,281.6a38.6,38.6,0,1,1,71-30.39A39.91,39.91,0,0,1,200.85,260.61Z" transform="translate(-124.07 -227.79)"/><path d="M624.47,241.93c19.21,22.22,39.71,42.94,60.61,63.2S727.5,345,749.41,364.06s44.25,37.72,67.11,55.73,46.24,35.45,70.88,51.43l.13.08a34.29,34.29,0,0,1,10.11,47.42,35,35,0,0,1-10.19,10.16c-24.74,16-48.12,33.46-71.07,51.45s-45.28,36.7-67.17,55.9S705.87,675.14,685,695.46s-41.31,41.23-60.41,63.61a38.7,38.7,0,0,1-58.88-50.24,40.19,40.19,0,0,1,8.43-7.38c24.71-16,48.08-33.5,71-51.48s45.27-36.7,67.19-55.87,43.37-38.88,64.29-59.19,41.31-41.23,60.39-63.65l0,57.67c-19.17-22.24-39.67-43-60.56-63.23s-42.41-39.84-64.32-58.93S667.89,369.08,645,351.08s-46.25-35.43-70.87-51.42a38.68,38.68,0,1,1,42.13-64.87A40,40,0,0,1,624.47,241.93Z" transform="translate(-124.07 -227.79)"/></svg>